<?xml version="1.0" encoding="utf-8"?>
<!-- Generator: Adobe Illustrator 27.8.1, SVG Export Plug-In . SVG Version: 6.00 Build 0)  -->
<svg version="1.1" id="Layer_1" xmlns="http://www.w3.org/2000/svg" xmlns:xlink="http://www.w3.org/1999/xlink" x="0px" y="0px"
	 viewBox="0 0 1000 1000" style="enable-background:new 0 0 1000 1000;" xml:space="preserve">
<style type="text/css">
	.st0{fill:#FF2D20;}
</style>
<path class="st0" d="M958.7,240.6c0.3,1.3,0.5,2.6,0.5,3.9v203.9c0,5.3-2.8,10.2-7.5,12.9l-171.1,98.5v195.3
	c0,5.3-2.8,10.2-7.4,12.9L415.9,973.7c-0.8,0.5-1.7,0.8-2.6,1.1c-0.3,0.1-0.7,0.3-1,0.4c-2.5,0.7-5.1,0.7-7.6,0
	c-0.4-0.1-0.8-0.3-1.2-0.5c-0.8-0.3-1.7-0.6-2.5-1L43.9,768c-4.6-2.7-7.5-7.6-7.5-12.9V143.4c0-1.3,0.2-2.6,0.5-3.9
	c0.1-0.4,0.4-0.8,0.5-1.2c0.3-0.8,0.5-1.6,0.9-2.3c0.3-0.5,0.7-0.9,1-1.3c0.4-0.6,0.8-1.2,1.3-1.7c0.4-0.4,1-0.7,1.5-1.1
	c0.5-0.4,1-0.9,1.6-1.3h0L222.5,27.6c4.6-2.6,10.3-2.6,14.9,0L416,130.5h0c0.6,0.4,1.1,0.8,1.6,1.3c0.5,0.4,1,0.7,1.4,1.1
	c0.5,0.5,0.9,1.2,1.3,1.7c0.3,0.4,0.7,0.8,1,1.3c0.4,0.7,0.7,1.5,1,2.3c0.1,0.4,0.4,0.8,0.5,1.3c0.3,1.3,0.5,2.6,0.5,3.9v382.1
	l148.8-85.7V244.4c0-1.3,0.2-2.6,0.5-3.9c0.1-0.4,0.4-0.8,0.5-1.3c0.3-0.8,0.6-1.6,1-2.3c0.3-0.5,0.7-0.9,1-1.3
	c0.4-0.6,0.8-1.2,1.3-1.7c0.4-0.4,1-0.7,1.4-1.1c0.6-0.4,1-0.9,1.6-1.3h0l178.6-102.8c4.6-2.7,10.3-2.7,14.9,0l178.6,102.8
	c0.6,0.4,1.1,0.8,1.7,1.3c0.5,0.4,1,0.7,1.4,1.1c0.5,0.5,0.9,1.2,1.3,1.7c0.3,0.4,0.7,0.8,1,1.3c0.4,0.7,0.7,1.5,1,2.3
	C958.4,239.7,958.6,240.1,958.7,240.6L958.7,240.6z M929.5,439.8V270.2l-62.5,36l-86.3,49.7v169.6L929.5,439.8L929.5,439.8z
	 M750.9,746.5V576.8L666,625.3L423.4,763.8V935L750.9,746.5z M66.2,169.1v577.4L393.6,935V763.8L222.6,667l-0.1,0l-0.1,0
	c-0.6-0.3-1.1-0.8-1.6-1.2c-0.5-0.4-1-0.7-1.4-1.1l0-0.1c-0.5-0.5-0.8-1-1.2-1.6c-0.4-0.5-0.8-0.9-1.1-1.4l0-0.1
	c-0.3-0.6-0.5-1.2-0.8-1.9c-0.2-0.6-0.6-1.1-0.7-1.7v0c-0.2-0.7-0.2-1.4-0.3-2.2c-0.1-0.6-0.2-1.1-0.2-1.7V254.8l-86.3-49.7
	L66.2,169.1L66.2,169.1z M229.9,57.7L81.1,143.4L229.9,229l148.8-85.7L229.9,57.7L229.9,57.7z M307.3,592.3l86.3-49.7V169.1
	l-62.5,36l-86.3,49.7v373.5L307.3,592.3z M765.8,158.8L617,244.5l148.8,85.7l148.8-85.7L765.8,158.8z M750.9,355.9l-86.3-49.7
	l-62.5-36v169.6l86.3,49.7l62.5,36V355.9z M408.5,738l218.2-124.6l109.1-62.3l-148.7-85.6L416,564.1l-156,89.8L408.5,738z"/>
</svg>
