<?xml version="1.0" encoding="utf-8"?>
<!-- Generator: Adobe Illustrator 27.8.1, SVG Export Plug-In . SVG Version: 6.00 Build 0)  -->
<svg version="1.1" id="Layer_1" xmlns="http://www.w3.org/2000/svg" xmlns:xlink="http://www.w3.org/1999/xlink" x="0px" y="0px"
	 viewBox="0 0 1000 1000" style="enable-background:new 0 0 1000 1000;" xml:space="preserve">
<style type="text/css">
	.st0{fill:#4CABCF;}
	.st1{fill:#4C75CF;}
</style>
<g>
	<path class="st0" d="M429.8,203.2l-167-84.3L79.3,210.4L251,296.5L429.8,203.2z M506.4,241.9l175.2,88.5l-181.7,91.2L328,335.2
		L506.4,241.9z M740.4,120.1l180,90.2l-161,80.8l-175.5-88.5L740.4,120.1z M662.9,81.3L500.9,0L340.6,80l167,84.2L662.9,81.3z
		 M536.2,778.9V1000l196.3-97.9l-0.2-221.2L536.2,778.9z M732.2,603.7L732,384.8l-195.8,97.3v218.9L732.2,603.7z M967.9,562.7v222
		l-167.4,83.5l-0.1-220.9L967.9,562.7z M967.9,485.1V267.6L800.1,351l0.1,219.3L967.9,485.1z"/>
	<path class="st1" d="M466.9,482.2l-132.2-66.5v287.2c0,0-161.7-344-176.7-374.9c-1.9-4-9.9-8.4-11.9-9.4
		c-29.2-15.2-114.1-58.2-114.1-58.2v507.6l117.5,63V565.5c0,0,160,307.4,161.6,310.8c1.7,3.4,17.6,35.7,34.8,47.1
		c22.8,15.1,120.8,74,120.8,74L466.9,482.2z"/>
</g>
</svg>
