<?xml version="1.0" encoding="utf-8"?>
<!-- Generator: Adobe Illustrator 27.8.1, SVG Export Plug-In . SVG Version: 6.00 Build 0)  -->
<svg version="1.1" id="Layer_1" xmlns="http://www.w3.org/2000/svg" xmlns:xlink="http://www.w3.org/1999/xlink" x="0px" y="0px"
	 viewBox="0 0 1000 1000" style="enable-background:new 0 0 1000 1000;" xml:space="preserve">
<style type="text/css">
	.st0{fill-rule:evenodd;clip-rule:evenodd;fill:#6E81B6;}
	.st1{fill-rule:evenodd;clip-rule:evenodd;fill:#FFFFFF;}
	.st2{fill-rule:evenodd;clip-rule:evenodd;}
</style>
<g>
	<path class="st0" d="M500,740.7c262.3,0,475-107.8,475-240.7S762.3,259.3,500,259.3C237.7,259.3,25,367.1,25,500
		S237.7,740.7,500,740.7L500,740.7z"/>
	<path class="st1" d="M596.2,577.8l23.6-121.3c5.3-27.4,0.9-47.8-13.1-60.7c-13.6-12.5-36.7-18.6-70.6-18.6h-40.8l11.7-60.1
		c0.8-4.2-1.9-8.2-6.1-9.1c-0.5-0.1-1-0.1-1.5-0.1h-56.3c-3.7,0-6.9,2.6-7.6,6.3l-25,128.7c-2.3-14.5-7.9-26.9-16.9-37.2
		c-16.5-18.9-42.6-28.5-77.7-28.5H206.8c-3.7,0-6.9,2.6-7.6,6.2l-50.6,260.6c-0.4,2.3,0.1,4.6,1.6,6.4c1.5,1.8,3.6,2.8,6,2.8h56.8
		c3.7,0,6.9-2.6,7.6-6.3l12.3-63H275c22.2,0,40.8-2.4,55.3-7.1c14.9-4.8,28.6-13,40.6-24.3c9.7-9,17.8-19,24-29.8l-10.1,52.1
		c-0.4,2.3,0.1,4.6,1.6,6.4c1.5,1.8,3.7,2.8,6,2.8h56.3c3.7,0,6.9-2.6,7.6-6.2l27.8-143h38.6c16.5,0,21.3,3.3,22.6,4.7
		c1.2,1.3,3.7,5.8,0.9,20.1l-22.4,115.3c-0.8,4.2,1.9,8.3,6.1,9.1c0.5,0.1,1,0.1,1.4,0.1h57.2C592.3,584,595.5,581.4,596.2,577.8
		L596.2,577.8z M335.1,477.6c-3.5,18.2-10.2,31.1-19.8,38.5c-9.8,7.5-25.4,11.3-46.4,11.3h-25.2l18.2-93.6h32.5
		c23.9,0,33.5,5.1,37.4,9.4C337.2,449.2,338.3,461.1,335.1,477.6z M833.5,405.8c-16.5-18.9-42.6-28.5-77.7-28.5H646.6
		c-3.7,0-6.9,2.6-7.6,6.2l-50.6,260.6c-0.4,2.3,0.1,4.6,1.6,6.4c1.5,1.8,3.7,2.8,6,2.8h56.8c3.7,0,6.9-2.6,7.6-6.3l12.3-63h42.3
		c22.2,0,40.8-2.4,55.3-7.1c14.9-4.8,28.6-13,40.6-24.3c10.1-9.2,18.3-19.6,24.6-30.8c6.3-11.2,10.8-23.7,13.4-37.2
		C855.3,451.3,850.1,424.8,833.5,405.8L833.5,405.8z M778.2,477.6c-3.5,18.2-10.2,31.1-19.8,38.5c-9.8,7.5-25.4,11.3-46.4,11.3
		h-25.2l18.2-93.6h32.5c23.9,0,33.5,5.1,37.4,9.4C780.3,449.2,781.4,461.1,778.2,477.6z"/>
	<path class="st2" d="M294.4,426.2c21.6,0,35.9,4,43.1,11.9c7.2,8,8.9,21.6,5.1,41c-3.9,20.2-11.5,34.6-22.7,43.2
		c-11.2,8.6-28.2,12.9-51.1,12.9h-34.5l21.2-109.1H294.4z M156.1,645.6h56.8l13.5-69.3H275c21.5,0,39.1-2.3,53-6.8
		c13.9-4.5,26.5-12.1,37.8-22.7c9.5-8.7,17.2-18.4,23.1-28.9c5.9-10.5,10.1-22.2,12.5-34.9c6-30.9,1.5-55-13.6-72.2
		c-15.1-17.2-39-25.9-71.8-25.9H206.8L156.1,645.6z M443.1,315.8h56.3L485.9,385h50.2c31.6,0,53.3,5.5,65.3,16.5
		c12,11,15.6,28.9,10.8,53.5l-23.6,121.3h-57.2L553.8,461c2.5-13.1,1.6-22.1-2.8-26.8c-4.4-4.8-13.9-7.2-28.3-7.2h-45l-29,149.3
		h-56.3L443.1,315.8z M737.5,426.2c21.6,0,35.9,4,43.1,11.9c7.2,8,8.9,21.6,5.1,41c-3.9,20.2-11.5,34.6-22.7,43.2
		c-11.2,8.6-28.2,12.9-51.1,12.9h-34.5l21.2-109.1H737.5z M599.2,645.6H656l13.5-69.3H718c21.5,0,39.1-2.3,53-6.8
		s26.5-12.1,37.8-22.7c9.5-8.7,17.2-18.4,23.1-28.9c5.9-10.5,10.1-22.2,12.6-34.9c6-30.9,1.5-55-13.6-72.2
		c-15.1-17.2-39-25.9-71.9-25.9H649.8L599.2,645.6z"/>
</g>
</svg>
